<svg width="46" height="46" viewBox="0 0 46 46" fill="none" xmlns="http://www.w3.org/2000/svg">
<path fill-rule="evenodd" clip-rule="evenodd" d="M12.9375 37.375C7.37978 37.375 2.875 32.8702 2.875 27.3125C2.875 23.23 5.30619 19.717 8.79566 18.1396C9.73723 12.7346 14.4504 8.625 20.125 8.625C23.92 8.625 27.2854 10.465 29.3788 13.2949C30.0868 13.0631 30.8415 12.9373 31.6249 12.9373C35.2097 12.9373 38.1799 15.5608 38.7245 18.9928C41.3785 20.8022 43.1251 23.8513 43.1251 27.3123C43.1251 32.8701 38.6203 37.3748 33.0626 37.3748L12.9375 37.375ZM11.5395 19.2984C11.9546 14.923 15.64 11.5 20.125 11.5C23.3162 11.5 26.1031 13.2322 27.5963 15.8125C27.988 16.4917 28.8523 16.7307 29.5369 16.3498C30.1551 16.0084 30.8648 15.8125 31.6249 15.8125C33.9339 15.8125 35.8188 17.6273 35.932 19.9076C35.9554 20.3963 36.2267 20.8383 36.649 21.0827C38.8052 22.3261 40.2499 24.6513 40.2499 27.3125C40.2499 31.2818 37.0317 34.5 33.0624 34.5H24.4374V29.3448L26.2954 31.2046C26.8578 31.7652 27.767 31.7652 28.3295 31.2046C28.8901 30.6421 28.8901 29.7329 28.3295 29.1705L24.017 24.858C23.4545 24.2973 22.5453 24.2973 21.9829 24.858L17.6704 29.1705C17.1097 29.7329 17.1097 30.6421 17.6704 31.2046C18.2328 31.7652 19.142 31.7652 19.7045 31.2046L21.5625 29.3448V34.5H12.9375C8.96816 34.5 5.74995 31.2818 5.74995 27.3125C5.74995 24.1716 7.76604 21.4976 10.58 20.5201C11.11 20.3351 11.4856 19.8589 11.5395 19.2983L11.5395 19.2984Z" fill="#017B95"/>
</svg>
