<svg width="16" height="16" viewBox="0 0 16 16" fill="none" xmlns="http://www.w3.org/2000/svg">
<path d="M2.73996 13.1125V4.16H1.95245C1.71245 4.1575 1.51557 4.35 1.51245 4.59V14.8175C1.51308 14.9331 1.55995 15.0438 1.64308 15.125C1.72558 15.2063 1.83682 15.2513 1.95245 15.25H10.5925C10.7081 15.2513 10.8193 15.2063 10.9018 15.125C10.985 15.0438 11.0318 14.9332 11.0325 14.8175V14.045H3.67997C3.16309 14.0463 2.74247 13.6294 2.73997 13.1125L2.73996 13.1125Z" fill="white"/>
<path d="M4.4675 11.4099V2.45489H3.67999C3.56437 2.45364 3.45311 2.49864 3.37062 2.57989C3.28749 2.66114 3.24062 2.77176 3.23999 2.88739V13.1124C3.24062 13.228 3.28749 13.3386 3.37062 13.4199C3.45312 13.5011 3.56436 13.5461 3.67999 13.5449H12.32C12.4356 13.5461 12.5469 13.5011 12.6294 13.4199C12.7125 13.3386 12.7594 13.228 12.76 13.1124V12.3399H5.40751C4.89126 12.3417 4.47126 11.9261 4.46751 11.4099L4.4675 11.4099Z" fill="white"/>
<path d="M10.8425 1.0975V4.34006H14.13L10.8425 1.0975Z" fill="white"/>
<path d="M10.5923 4.84C10.5261 4.84062 10.4617 4.81437 10.4148 4.7675C10.3679 4.72063 10.3417 4.65625 10.3423 4.59V0.749995H5.40729C5.29166 0.748745 5.18041 0.793745 5.09791 0.874995C5.01479 0.956244 4.96791 1.06687 4.96729 1.1825V11.41C4.97041 11.65 5.16729 11.8425 5.40729 11.84H14.0473C14.2873 11.8425 14.4842 11.65 14.4873 11.41V4.8401L10.5923 4.84ZM7.13489 6.04499H9.55489V6.54499H7.13489V6.04499ZM12.6648 9.95507H7.13489V9.45507H12.6648V9.95507ZM12.6648 8.25011H7.13489V7.75011H12.6648V8.25011Z" fill="white"/>
</svg>
