<svg width="14" height="14" viewBox="0 0 14 14" fill="none" xmlns="http://www.w3.org/2000/svg">
<path d="M1.95999 13.16H12.04C12.968 13.16 13.72 12.4081 13.72 11.48V3.64C13.72 2.71196 12.968 1.96 12.04 1.96H6.22565L5.82097 1.14953C5.8062 1.12656 5.78925 1.10523 5.77065 1.085C5.74933 1.05164 5.72526 1.02047 5.69792 0.990936C5.67003 0.968514 5.63995 0.948827 5.60823 0.930779C5.57925 0.911639 5.54917 0.894139 5.51745 0.879373C5.47862 0.867888 5.4387 0.859686 5.39823 0.85531C5.37253 0.8482 5.34628 0.842731 5.32003 0.839996H1.96003C1.03198 0.839996 0.280029 1.59195 0.280029 2.52V11.48C0.280029 12.408 1.03198 13.16 1.96003 13.16L1.95999 13.16ZM12.04 3.08C12.1887 3.08 12.3309 3.13907 12.4359 3.24407C12.5409 3.34907 12.6 3.49125 12.6 3.64V4.2H7.34565L6.78565 3.08H12.04ZM1.39999 2.52C1.39999 2.21048 1.65046 1.96 1.95999 1.96H4.97433L6.49907 5.01047C6.52477 5.06242 6.55868 5.10945 6.5997 5.15047L6.62485 5.17125V5.17179C6.66696 5.20789 6.71399 5.23797 6.76485 5.26093C6.78071 5.26914 6.79712 5.27625 6.81407 5.28226C6.87313 5.30523 6.93602 5.31836 7 5.32H12.6V11.48C12.6 11.6287 12.5409 11.7709 12.4359 11.8759C12.3309 11.9809 12.1888 12.04 12.04 12.04H1.96C1.65048 12.04 1.4 11.7895 1.4 11.48L1.39999 2.52Z" fill="#017B95"/>
</svg>
