<svg width="10" height="14" viewBox="0 0 10 14" fill="none" xmlns="http://www.w3.org/2000/svg">
<path fill-rule="evenodd" clip-rule="evenodd" d="M0.80002 13.16C0.653454 13.16 0.52002 13.0266 0.52002 12.88V4.45369C0.52002 4.34596 0.557754 4.28908 0.62502 4.21744L3.9587 0.93178C4.03526 0.859046 4.10198 0.840452 4.2037 0.839905H9.20002C9.34659 0.839905 9.48002 0.973342 9.48002 1.1199V12.8799C9.48002 13.0265 9.34658 13.1599 9.20002 13.1599L0.80002 13.16ZM2.4887 11.0643H7.50686C7.58178 11.0654 7.65397 11.0365 7.70756 10.9834C7.76061 10.9309 7.79069 10.8593 7.79069 10.7843C7.79069 10.7094 7.76061 10.6372 7.70756 10.5847C7.65397 10.5322 7.58178 10.5033 7.50686 10.5043H2.4887C2.41378 10.5033 2.34159 10.5322 2.288 10.5847C2.23495 10.6372 2.20487 10.7094 2.20487 10.7843C2.20487 10.8593 2.23495 10.9309 2.288 10.9834C2.34159 11.0365 2.41378 11.0654 2.4887 11.0643ZM2.44932 9.62067H2.46245H2.4887H5.91002C6.06259 9.61794 6.18509 9.49325 6.18509 9.34067C6.18509 9.18754 6.06259 9.0634 5.91002 9.06067H2.4887C2.41432 9.0552 2.34104 9.07981 2.28472 9.12848C2.22839 9.17716 2.19394 9.24661 2.18847 9.32098C2.18355 9.39536 2.20816 9.46864 2.25683 9.52496C2.3055 9.58074 2.37495 9.6152 2.44933 9.62067L2.44932 9.62067ZM1.48246 4.15633H3.88878V1.78501L1.48246 4.15633Z" fill="#00224C"/>
</svg>
