<svg width="16" height="16" viewBox="0 0 16 16" fill="none" xmlns="http://www.w3.org/2000/svg">
<path fill-rule="evenodd" clip-rule="evenodd" d="M7.98439 0.959992C7.85189 0.966867 7.73688 1.05437 7.69563 1.18062L6.08939 5.99998H0.945073V6.0006C0.806948 6.0006 0.684449 6.08935 0.641953 6.2206C0.598828 6.35185 0.645078 6.49561 0.755703 6.5781L4.93442 9.63378L3.32818 14.6213V14.6207C3.28506 14.7532 3.33256 14.8976 3.44506 14.9788C3.55756 15.0607 3.70943 15.0601 3.82131 14.9782L8.00003 11.9225L12.1788 14.9782C12.2906 15.0601 12.4425 15.0607 12.555 14.9788C12.6675 14.8976 12.715 14.7532 12.6719 14.6207L11.0656 9.63316L15.2444 6.57748V6.5781C15.355 6.4956 15.4012 6.35185 15.3581 6.2206C15.3156 6.08935 15.1931 6.0006 15.055 6.0006H9.91068L8.30444 1.18124V1.18062C8.26006 1.04374 8.1288 0.953112 7.98444 0.959992H7.98439Z" fill="#00224C"/>
</svg>
