<svg width="14" height="14" viewBox="0 0 14 14" fill="none" xmlns="http://www.w3.org/2000/svg">
<path d="M6.99993 0.237885C3.26207 0.237885 0.237793 3.26216 0.237793 7.00002C0.237793 10.7379 3.26207 13.7622 6.99993 13.7622C10.7378 13.7622 13.7621 10.7379 13.7621 7.00002C13.7621 3.26216 10.7378 0.237885 6.99993 0.237885ZM10.3457 7.39216H7.29407V10.4443C7.29407 10.6543 7.12618 10.8222 6.91618 10.8222C6.70618 10.8222 6.5383 10.6543 6.5383 10.4443L6.53775 7.39216H3.49989C3.28989 7.39216 3.122 7.22428 3.122 7.01428C3.122 6.80428 3.28989 6.63639 3.49989 6.63639H6.55203V3.58425C6.55203 3.37425 6.71992 3.20636 6.92992 3.20636C7.13992 3.20636 7.30781 3.37425 7.30781 3.58425V6.63639H10.3599C10.5699 6.63639 10.7378 6.80428 10.7378 7.01428C10.7242 7.22428 10.5557 7.39216 10.3457 7.39216H10.3457Z" fill="white"/>
</svg>
