<svg width="14" height="14" viewBox="0 0 14 14" fill="none" xmlns="http://www.w3.org/2000/svg">
<path fill-rule="evenodd" clip-rule="evenodd" d="M3.9375 11.375C2.24602 11.375 0.875 10.004 0.875 8.3125C0.875 7.07 1.61493 6.00082 2.67694 5.52076C2.96351 3.87576 4.39796 2.625 6.125 2.625C7.28 2.625 8.30424 3.185 8.94138 4.04628C9.15685 3.97573 9.38654 3.93745 9.62497 3.93745C10.716 3.93745 11.62 4.73589 11.7857 5.78041C12.5935 6.33112 13.125 7.25909 13.125 8.31245C13.125 10.0039 11.754 11.375 10.0625 11.375L3.9375 11.375ZM3.51203 5.87342C3.63835 4.54178 4.76 3.5 6.12499 3.5C7.09624 3.5 7.94443 4.02718 8.39887 4.8125C8.51808 5.01922 8.78114 5.09195 8.9895 4.97602C9.17763 4.87211 9.39364 4.8125 9.62497 4.8125C10.3277 4.8125 10.9014 5.36484 10.9358 6.05882C10.9429 6.20757 11.0255 6.3421 11.154 6.41648C11.8103 6.79491 12.25 7.50257 12.25 8.3125C12.25 9.52055 11.2705 10.5 10.0625 10.5H7.43747V8.93102L8.00295 9.49704C8.17412 9.66767 8.45083 9.66767 8.62201 9.49704C8.79264 9.32586 8.79264 9.04915 8.62201 8.87797L7.30951 7.56547C7.13833 7.39484 6.86162 7.39484 6.69045 7.56547L5.37795 8.87797C5.20731 9.04915 5.20731 9.32586 5.37795 9.49704C5.54912 9.66767 5.82583 9.66767 5.99701 9.49704L6.56249 8.93102V10.5H3.93749C2.72944 10.5 1.74999 9.52055 1.74999 8.3125C1.74999 7.35657 2.36358 6.54276 3.21999 6.24526C3.38131 6.18893 3.49562 6.04401 3.51201 5.87339L3.51203 5.87342Z" fill="white"/>
</svg>
