<svg width="22" height="22" viewBox="0 0 22 22" fill="none" xmlns="http://www.w3.org/2000/svg">
<path d="M20.2397 11.99V10.01C20.2397 9.76764 20.0635 9.54764 19.822 9.48234L18.0844 9.04234C17.9082 8.99852 17.7767 8.86617 17.7105 8.68999C17.6229 8.40382 17.5129 8.13999 17.3805 7.87617C17.2929 7.7 17.3144 7.50234 17.4029 7.34852L18.3052 5.83087C18.4376 5.61087 18.3929 5.34705 18.2176 5.14852L16.8099 3.74087C16.6338 3.5647 16.3476 3.52087 16.1276 3.65322L14.6099 4.55557C14.4561 4.64322 14.2576 4.66557 14.0823 4.57791C13.8185 4.44557 13.5546 4.33556 13.2685 4.24791C13.0923 4.18174 12.9608 4.05025 12.9161 3.87409L12.4761 2.13644C12.4735 1.9362 12.2535 1.76004 11.9897 1.76004H10.0097C9.76737 1.76004 9.54737 1.93621 9.48207 2.17769L9.04207 3.91534C8.99824 4.09151 8.8659 4.22298 8.68972 4.28916C8.40354 4.37682 8.13972 4.48682 7.87589 4.61916C7.69972 4.70682 7.50207 4.68533 7.34825 4.59682L5.8306 3.69447C5.6106 3.56212 5.34677 3.60681 5.14825 3.78212L3.7406 5.18977C3.56443 5.36594 3.5206 5.65212 3.65294 5.87212L4.55529 7.38977C4.64295 7.5436 4.66529 7.74212 4.57764 7.91742C4.44529 8.18124 4.33528 8.44507 4.24764 8.73124C4.18146 8.90741 4.04998 9.03889 3.87381 9.08359L2.13616 9.52359C1.93593 9.52617 1.75977 9.74617 1.75977 10.01V11.99C1.75977 12.2323 1.93594 12.4523 2.17741 12.5176L3.91506 12.9576C4.09123 13.0015 4.22271 13.1338 4.28889 13.31C4.37654 13.5962 4.48654 13.86 4.61889 14.1238C4.70654 14.3 4.68506 14.4976 4.59654 14.6515L3.69419 16.1691C3.56185 16.3891 3.60653 16.6529 3.78185 16.8515L5.1895 18.2591C5.36567 18.4353 5.65185 18.4791 5.87185 18.3468L7.38949 17.4444C7.54332 17.3568 7.74185 17.3344 7.91714 17.4221C8.18097 17.5544 8.44479 17.6644 8.73097 17.7521C8.90714 17.8182 9.03862 17.9497 9.08332 18.1259L9.52332 19.8635C9.58949 20.1059 9.8095 20.2812 10.051 20.2812H12.031C12.2733 20.2812 12.4933 20.105 12.5586 19.8635L12.9986 18.1259C13.0424 17.9497 13.1748 17.8182 13.351 17.7521C13.6371 17.6644 13.901 17.5544 14.1648 17.4221C14.341 17.3344 14.5386 17.3559 14.6924 17.4444L16.2101 18.3468C16.4301 18.4791 16.6939 18.4344 16.8924 18.2591L18.3001 16.8515C18.4763 16.6753 18.5201 16.3891 18.3877 16.1691L17.4854 14.6515C17.3977 14.4976 17.3754 14.2991 17.463 14.1238C17.5954 13.86 17.7054 13.5962 17.793 13.31C17.8592 13.1338 17.9907 13.0023 18.1669 12.9576L19.9045 12.5176C20.0635 12.4738 20.2397 12.2538 20.2397 11.99ZM10.9997 15.2676C8.64589 15.2676 6.73211 13.3537 6.73211 11C6.73211 8.64626 8.64593 6.73243 10.9997 6.73243C13.3534 6.73243 15.2672 8.64626 15.2672 11C15.2672 13.3537 13.3534 15.2676 10.9997 15.2676Z" fill="#017B95"/>
</svg>
