<svg width="155" height="69" viewBox="0 0 155 69" fill="none" xmlns="http://www.w3.org/2000/svg">
<g clip-path="url(#clip0_14_2)">
<path d="M16.4736 46.2881C16.4736 50.9671 12.7856 54.7601 8.23657 54.7601C3.68757 54.7601 0 50.9671 0 46.2881C0 41.6088 3.68757 37.8153 8.23657 37.8153C12.7856 37.8153 16.4736 41.6088 16.4736 46.2881ZM48.8162 54.8216H34.1198L14.5117 14.9137L21.8464 0L48.8162 54.8216H48.8162Z" fill="white"/>
<path d="M83.9896 38.621C83.9896 48.3243 79.2004 55.4899 69.8393 55.4899C66.0659 55.4899 63.5261 54.7433 61.8571 53.3253V69H52.5687V17.4974H61.8571V19.9605C63.5987 17.9453 66.2111 16.8256 69.912 16.8256C78.3295 16.8256 83.9896 22.8715 83.9896 33.5453V38.621V38.621ZM74.7012 38.0237V34.1424C74.7012 28.171 72.8871 24.8869 68.3155 24.8869C63.889 24.8869 61.8571 27.8725 61.8571 33.3214V38.0237C61.8571 43.398 63.0907 47.4286 68.3155 47.4286C73.3225 47.4286 74.7012 43.398 74.7012 38.0237V38.0237Z" fill="white"/>
<path d="M118.168 49.1453C115.628 53.6984 111.419 55.4899 104.888 55.4899C94.0034 55.4899 88.7786 48.2496 88.7786 38.621V33.5453C88.7786 22.2745 94.2936 16.8256 103.727 16.8256C113.959 16.8256 118.676 22.9463 118.676 34.2918V38.5463H97.9944C98.067 43.6965 99.6634 47.4286 104.816 47.4286C108.662 47.4286 109.895 46.2344 111.274 44.219L118.168 49.1453V49.1453ZM97.9944 31.7538H109.387C109.17 26.9022 107.283 24.8869 103.8 24.8869C100.099 24.8869 98.3573 27.4994 97.9944 31.7538V31.7538Z" fill="white"/>
<path d="M144.582 54.8181L137.543 43.4725L130.504 54.8181H120.272L132.173 35.7099L121.216 17.4974H131.447L137.543 28.171L143.639 17.4974H153.87L142.913 35.7099L154.886 54.8181H144.582V54.8181Z" fill="white"/>
<path d="M76.833 65.6089C76.7402 66.1753 76.5718 66.6831 76.3276 67.1323C76.0884 67.5767 75.7881 67.9429 75.4268 68.231C75.0703 68.519 74.6675 68.7339 74.2183 68.8755C73.769 69.0171 73.2905 69.0879 72.7827 69.0879C71.5962 69.0879 70.6074 68.6875 69.8164 67.8867C69.3477 67.418 69.0498 66.8857 68.9229 66.29C68.7959 65.6943 68.7324 64.9375 68.7324 64.0195V63.6606V63.3018C68.7324 62.3838 68.7959 61.627 68.9229 61.0312C69.0498 60.4307 69.3477 59.896 69.8164 59.4272C70.2168 59.0269 70.6562 58.729 71.1348 58.5337C71.6133 58.3335 72.1626 58.2334 72.7827 58.2334C73.3149 58.2334 73.8032 58.3066 74.2476 58.4531C74.6919 58.5947 75.0898 58.8096 75.4414 59.0977C75.793 59.3809 76.0884 59.7446 76.3276 60.189C76.5718 60.6284 76.7402 61.1362 76.833 61.7124H74.167C74.0742 61.3657 73.9229 61.0898 73.7129 60.8848C73.5078 60.6748 73.2026 60.5698 72.7974 60.5698C72.5728 60.5698 72.3701 60.6113 72.1895 60.6943C72.0137 60.7773 71.8721 60.8848 71.7646 61.0166C71.6719 61.1338 71.5962 61.2754 71.5376 61.4414C71.4839 61.6025 71.4399 61.8516 71.4058 62.1885C71.3765 62.5205 71.3618 63.0112 71.3618 63.6606C71.3618 64.5249 71.3936 65.1328 71.457 65.4844C71.5205 65.8311 71.623 66.1021 71.7646 66.2974C71.999 66.6001 72.3433 66.7515 72.7974 66.7515C73.1929 66.7515 73.4956 66.6489 73.7056 66.4438C73.9204 66.2339 74.0742 65.9556 74.167 65.6089H76.833ZM85.3291 69H78.2173V58.3213H80.8467V66.6636H85.3291V69ZM94.6455 63.6606V64.0195C94.6455 64.6152 94.6235 65.1279 94.5796 65.5576C94.5405 65.9873 94.4429 66.4023 94.2866 66.8027C94.1304 67.2031 93.8911 67.5645 93.5688 67.8867C93.1733 68.2822 92.7363 68.5825 92.2578 68.7876C91.7842 68.9878 91.2251 69.0879 90.5806 69.0879C90.146 69.0879 89.7529 69.0439 89.4014 68.9561C89.0547 68.8633 88.7324 68.729 88.4346 68.5532C88.1416 68.3774 87.8633 68.1553 87.5996 67.8867C87.1309 67.418 86.833 66.8857 86.7061 66.29C86.5791 65.6943 86.5156 64.9375 86.5156 64.0195V63.6606V63.3018C86.5156 62.3838 86.5791 61.627 86.7061 61.0312C86.833 60.4307 87.1309 59.896 87.5996 59.4272C88.0049 59.022 88.4419 58.7217 88.9106 58.5264C89.3843 58.3311 89.9409 58.2334 90.5806 58.2334C91.2251 58.2334 91.7842 58.3335 92.2578 58.5337C92.7314 58.729 93.1685 59.0269 93.5688 59.4272C93.8911 59.7495 94.1304 60.1133 94.2866 60.5186C94.4429 60.9189 94.5405 61.334 94.5796 61.7637C94.6235 62.1934 94.6455 62.7061 94.6455 63.3018V63.6606ZM92.0234 63.6606C92.0234 62.7524 91.9917 62.1323 91.9282 61.8003C91.8696 61.4683 91.772 61.2144 91.6353 61.0386C91.5376 60.9019 91.3936 60.7896 91.2031 60.7017C91.0176 60.6138 90.8101 60.5698 90.5806 60.5698C90.356 60.5698 90.1533 60.6138 89.9727 60.7017C89.792 60.7847 89.6455 60.897 89.5332 61.0386C89.4453 61.1509 89.3721 61.29 89.3135 61.4561C89.2598 61.6172 89.2183 61.8687 89.189 62.2104C89.1597 62.5474 89.145 63.0308 89.145 63.6606C89.145 64.2856 89.1597 64.769 89.189 65.1108C89.2183 65.4478 89.2598 65.6968 89.3135 65.8579C89.3721 66.019 89.4453 66.1558 89.5332 66.2681C89.7822 66.5903 90.1313 66.7515 90.5806 66.7515C91.0347 66.7515 91.3862 66.5903 91.6353 66.2681C91.772 66.0776 91.8696 65.8237 91.9282 65.5063C91.9917 65.1841 92.0234 64.5688 92.0234 63.6606ZM104.394 65.25C104.394 65.8115 104.289 66.3315 104.079 66.8101C103.869 67.2886 103.576 67.6987 103.2 68.0405C102.824 68.3823 102.39 68.6436 101.896 68.8242C101.403 69 100.881 69.0879 100.329 69.0879C99.6016 69.0879 98.9253 68.9292 98.3003 68.6118C97.6802 68.2944 97.1895 67.8452 96.8281 67.2642C96.4717 66.6782 96.2935 66.0068 96.2935 65.25V58.3213H98.9155V65.1914C98.9155 65.6797 99.04 66.063 99.2891 66.3413C99.543 66.6147 99.8896 66.7515 100.329 66.7515C100.612 66.7515 100.864 66.6904 101.083 66.5684C101.303 66.4463 101.472 66.2681 101.589 66.0337C101.706 65.7993 101.765 65.5186 101.765 65.1914V58.3213H104.394V65.25ZM114.326 63.6606V64.5322C114.326 65.0498 114.301 65.4917 114.252 65.8579C114.208 66.2192 114.106 66.5781 113.945 66.9346C113.784 67.2861 113.54 67.6255 113.212 67.9526C112.514 68.6509 111.555 69 110.334 69H106.372V58.3213H110.334C111.555 58.3213 112.514 58.6704 113.212 59.3687C113.54 59.6958 113.784 60.0376 113.945 60.394C114.106 60.7456 114.208 61.1045 114.252 61.4707C114.301 61.832 114.326 62.2715 114.326 62.7891V63.6606ZM111.696 63.6606C111.696 62.7817 111.677 62.2031 111.638 61.9248C111.604 61.6416 111.53 61.4194 111.418 61.2583C111.149 60.8579 110.729 60.6577 110.158 60.6577H109.001V66.6636H110.158C110.729 66.6636 111.149 66.4634 111.418 66.063C111.501 65.936 111.557 65.8115 111.586 65.6895C111.621 65.5625 111.647 65.3477 111.667 65.0449C111.687 64.7422 111.696 64.2808 111.696 63.6606Z" fill="white"/>
</g>
<defs>
<clipPath id="clip0_14_2">
<rect width="155" height="69" fill="white"/>
</clipPath>
</defs>
</svg>
