<svg width="155" height="69" viewBox="0 0 155 69" fill="none" xmlns="http://www.w3.org/2000/svg">
<path d="M16.4736 46.2881C16.4736 50.9671 12.7856 54.7601 8.23657 54.7601C3.68757 54.7601 0 50.9671 0 46.2881C0 41.6088 3.68757 37.8153 8.23657 37.8153C12.7856 37.8153 16.4736 41.6088 16.4736 46.2881ZM48.8162 54.8216H34.1198L14.5117 14.9137L21.8464 0L48.8162 54.8216H48.8162Z" fill="white"/>
<path d="M83.9896 38.621C83.9896 48.3243 79.2004 55.4899 69.8393 55.4899C66.0659 55.4899 63.5261 54.7433 61.8571 53.3253V69H52.5687V17.4974H61.8571V19.9605C63.5987 17.9453 66.2111 16.8256 69.912 16.8256C78.3295 16.8256 83.9896 22.8715 83.9896 33.5453V38.621ZM74.7012 38.0237V34.1424C74.7012 28.171 72.8871 24.8869 68.3155 24.8869C63.889 24.8869 61.8571 27.8725 61.8571 33.3214V38.0237C61.8571 43.398 63.0907 47.4286 68.3155 47.4286C73.3225 47.4286 74.7012 43.398 74.7012 38.0237Z" fill="white"/>
<path d="M118.168 49.1453C115.628 53.6984 111.419 55.4899 104.888 55.4899C94.0034 55.4899 88.7786 48.2496 88.7786 38.621V33.5453C88.7786 22.2745 94.2936 16.8256 103.727 16.8256C113.959 16.8256 118.676 22.9463 118.676 34.2918V38.5463H97.9944C98.067 43.6965 99.6634 47.4286 104.816 47.4286C108.662 47.4286 109.895 46.2344 111.274 44.219L118.168 49.1453ZM97.9944 31.7538H109.387C109.17 26.9022 107.283 24.8869 103.8 24.8869C100.099 24.8869 98.3573 27.4994 97.9944 31.7538Z" fill="white"/>
<path d="M144.582 54.8181L137.543 43.4725L130.504 54.8181H120.272L132.173 35.7099L121.216 17.4974H131.447L137.543 28.171L143.639 17.4974H153.87L142.913 35.7099L154.886 54.8181H144.582Z" fill="white"/>
</svg>
