<svg width="20" height="20" viewBox="0 0 20 20" fill="none" xmlns="http://www.w3.org/2000/svg">
<path d="M10.0016 12.6C10.161 12.6 10.3133 12.5367 10.4258 12.4242L13.2492 9.60002L12.4016 8.75236L10.6016 10.5524V3.79996H9.40157V10.5524L7.60157 8.75236L6.75391 9.60002L9.57731 12.4242C9.68981 12.5367 9.84215 12.6 10.0015 12.6H10.0016Z" fill="#017B95"/>
<path d="M10.0009 16.2C11.6516 16.1992 13.2345 15.5398 14.3977 14.3672C15.5609 13.1953 16.2086 11.6086 16.1969 9.95698C16.1852 8.3062 15.5156 6.72738 14.3367 5.57178L13.4969 6.4296C14.4477 7.36242 14.9875 8.6358 14.9969 9.9672C15.0055 11.2992 14.4828 12.5796 13.5438 13.5242C12.6055 14.4695 11.329 15.0008 9.99695 15.0008C8.66491 15.0008 7.38835 14.4695 6.44935 13.5242C5.51107 12.5797 4.98841 11.2992 4.99701 9.9672C5.0056 8.63596 5.54545 7.3626 6.49701 6.4296L5.65717 5.57178C4.47671 6.72802 3.80717 8.30778 3.79701 9.95998C3.78607 11.6115 4.43529 13.1998 5.60013 14.371C6.76497 15.5429 8.34853 16.2007 10.0009 16.1999L10.0009 16.2Z" fill="#017B95"/>
</svg>
