<svg width="12" height="12" viewBox="0 0 12 12" fill="none" xmlns="http://www.w3.org/2000/svg">
<path d="M11.5382 3.23063H5.53816C5.28363 3.23063 5.0769 3.0239 5.0769 2.76937C5.0769 2.51437 5.28363 2.30765 5.53816 2.30765H11.5382C11.7932 2.30765 11.9999 2.51437 11.9999 2.76937C11.9999 3.0239 11.7932 3.23063 11.5382 3.23063Z" fill="white"/>
<path d="M3.2306 1.38467C2.64607 1.38702 2.12576 1.7564 1.93124 2.30764H0.461724C0.206724 2.30764 0 2.51437 0 2.76937C0 3.0239 0.206724 3.23062 0.461724 3.23062H1.93124C2.10421 3.71719 2.53452 4.06688 3.0464 4.13672C3.55828 4.20656 4.0664 3.98485 4.36364 3.56249C4.66084 3.14015 4.69787 2.58749 4.45974 2.12909C4.22114 1.67066 3.74724 1.38379 3.2307 1.38472L3.2306 1.38467ZM3.2306 3.23063C3.04404 3.23063 2.87576 3.11813 2.80451 2.94563C2.73279 2.7736 2.77216 2.57486 2.90435 2.44267C3.03654 2.31094 3.23482 2.27157 3.40732 2.34282C3.57982 2.41407 3.69232 2.58235 3.69232 2.76939C3.69232 2.89173 3.64357 3.00892 3.55732 3.09564C3.4706 3.18236 3.35295 3.23064 3.2306 3.23064L3.2306 3.23063Z" fill="white"/>
<path d="M11.5382 6.46175H8.76934C8.51434 6.46175 8.30762 6.25502 8.30762 6.00002C8.30762 5.74502 8.51434 5.5383 8.76934 5.5383H11.5387H11.5382C11.7932 5.5383 12 5.74502 12 6.00002C12 6.25502 11.7932 6.46175 11.5382 6.46175H11.5382Z" fill="white"/>
<path d="M6.46172 4.61533C5.87672 4.61767 5.35688 4.98705 5.16188 5.53829H0.461724C0.206724 5.53829 0 5.74502 0 6.00002C0 6.25502 0.206724 6.46174 0.461724 6.46174H5.16188C5.33532 6.94831 5.76516 7.29752 6.27704 7.36737C6.78893 7.43722 7.29704 7.21597 7.59428 6.79363C7.89194 6.37129 7.92898 5.81816 7.69038 5.35975C7.45225 4.90178 6.97835 4.61444 6.46182 4.61537L6.46172 4.61533ZM6.46172 6.46129V6.46175C6.27469 6.46175 6.10642 6.34925 6.03516 6.17675C5.9639 6.00425 6.00329 5.8055 6.135 5.67379C6.2672 5.54159 6.46547 5.50222 6.63797 5.57347C6.81047 5.64519 6.92297 5.81347 6.92297 6.00004C6.92297 6.12238 6.87422 6.24004 6.78797 6.32629C6.70125 6.41301 6.58407 6.46176 6.46172 6.46176L6.46172 6.46129Z" fill="white"/>
<path d="M11.5382 9.69239H6.92293C6.66793 9.69239 6.46167 9.48567 6.46167 9.23067C6.46167 8.97613 6.66793 8.76941 6.92293 8.76941H11.5382C11.7932 8.76941 12 8.97613 12 9.23067C12 9.48567 11.7932 9.69239 11.5382 9.69239Z" fill="white"/>
<path d="M4.61528 7.84595C4.03075 7.84876 3.51044 8.21814 3.31544 8.76938H0.461724C0.206724 8.76938 0 8.97611 0 9.23064C0 9.48564 0.206724 9.69236 0.461724 9.69236H3.31544C3.48888 10.1789 3.91919 10.5281 4.43107 10.598C4.94294 10.6678 5.4506 10.4466 5.74831 10.0242C6.0455 9.60191 6.08254 9.04878 5.84441 8.59085C5.60581 8.13241 5.13191 7.84507 4.61537 7.84601L4.61528 7.84595ZM4.61528 9.69191V9.69238C4.42872 9.69238 4.26044 9.57988 4.18872 9.40738C4.11747 9.23488 4.15685 9.0366 4.28903 8.90441C4.42122 8.77222 4.6195 8.73284 4.792 8.80456C4.9645 8.87581 5.077 9.0441 5.077 9.23066C5.077 9.353 5.02825 9.47066 4.94153 9.55738C4.85528 9.64363 4.73763 9.69238 4.61528 9.69238L4.61528 9.69191Z" fill="white"/>
</svg>
