<svg width="14" height="14" viewBox="0 0 14 14" fill="none" xmlns="http://www.w3.org/2000/svg">
<path d="M0.736747 12.4278C0.750966 12.5525 0.793075 12.6728 0.859795 12.7794C0.928701 12.8888 1.01675 12.9845 1.12011 13.0622C1.22894 13.1442 1.35034 13.2082 1.47995 13.2509C1.61503 13.2962 1.75722 13.3198 1.89995 13.3198H12.0976C12.2403 13.3198 12.3819 13.2962 12.5176 13.2509C12.6477 13.2082 12.7702 13.1442 12.8801 13.0622C12.9829 12.9851 13.0715 12.8905 13.1404 12.7822C13.2072 12.6755 13.2493 12.5558 13.2635 12.4305L13.7201 8.33442C13.736 8.19606 13.7196 8.05606 13.6726 7.92535C13.6261 7.79848 13.5528 7.68308 13.4571 7.58792C13.3565 7.48839 13.2372 7.41019 13.1054 7.35824C12.9616 7.30137 12.8079 7.27238 12.6532 7.27293H1.35097C1.1962 7.27238 1.04308 7.30136 0.899242 7.35824C0.767445 7.41019 0.647676 7.4884 0.547604 7.58792C0.451902 7.68308 0.378078 7.79847 0.33213 7.92535C0.283458 8.05606 0.265958 8.19606 0.280178 8.33442L0.736747 12.4278ZM4.14099 9.66001C4.16779 9.59931 4.20716 9.54517 4.25583 9.50032C4.30778 9.45275 4.36794 9.41611 4.43411 9.39095C4.5052 9.36415 4.58013 9.35048 4.65668 9.35048C4.73324 9.35103 4.80981 9.3647 4.88199 9.39095C4.94981 9.41611 5.0127 9.45329 5.06793 9.50032C5.12152 9.54462 5.16582 9.59876 5.19809 9.66001C5.22926 9.72016 5.24676 9.78688 5.2484 9.85469L5.27082 10.587H8.72868L8.7511 9.85469H8.75165C8.75329 9.78688 8.7697 9.72016 8.80032 9.66001C8.83259 9.59876 8.87634 9.54462 8.92939 9.50032C8.98407 9.45329 9.04751 9.41611 9.11532 9.39095C9.18751 9.3647 9.26407 9.35103 9.34064 9.35048C9.41665 9.35048 9.49212 9.36415 9.56321 9.39095C9.62883 9.41611 9.68954 9.45275 9.74094 9.50032C9.7907 9.54462 9.83008 9.59931 9.85742 9.66001C9.88367 9.72126 9.89571 9.78798 9.89242 9.85469L9.83227 11.0698C9.82844 11.1349 9.81039 11.1989 9.77922 11.2558C9.74695 11.3143 9.7043 11.3652 9.65289 11.4073C9.5993 11.451 9.53805 11.4849 9.47242 11.5079C9.40297 11.533 9.32914 11.5456 9.25531 11.5456H4.74465C4.67082 11.5456 4.59699 11.533 4.52753 11.5079C4.45972 11.4871 4.39628 11.4543 4.33996 11.4116C4.28855 11.3695 4.2459 11.3181 4.21418 11.2602C4.18246 11.2027 4.16441 11.1393 4.16059 11.0742L4.10043 9.85907C4.09824 9.79016 4.11191 9.72235 4.1409 9.66L4.14099 9.66001ZM10.301 1.84241H9.12685L9.16185 1.32998C9.17552 1.12545 9.1449 0.919822 9.07216 0.727868C9.07216 0.710916 9.05794 0.695603 9.05138 0.67865L10.931 0.679197C11.2471 0.679197 11.5167 0.906697 11.5698 1.21787L12.4393 6.30001H11.1301L10.3994 1.93327C10.3912 1.88351 10.348 1.84687 10.2972 1.84687L10.301 1.84241ZM5.08165 0.722408H5.08219C5.00891 0.915454 4.97829 1.12218 4.99251 1.32834L5.02751 1.84077H3.85282C3.80196 1.84077 3.75876 1.87796 3.75056 1.92772L3.01993 6.29992H1.7107L2.58023 1.21946C2.63328 0.907739 2.90398 0.679693 3.22007 0.680239H5.09915C5.09204 0.699926 5.08329 0.710864 5.07782 0.727817L5.08165 0.722408ZM5.00727 4.13169H5.00782C4.98813 4.08739 4.97665 4.03981 4.97282 3.99169C4.97009 3.94137 4.97665 3.89106 4.99251 3.84294C5.00946 3.79208 5.03626 3.7445 5.07071 3.70294C5.09587 3.67231 5.1254 3.64497 5.15766 3.622C5.19157 3.59794 5.22821 3.57825 5.26704 3.56294C5.30641 3.54708 5.34797 3.5345 5.39008 3.52684C5.43329 3.51864 5.47758 3.51427 5.52188 3.51427H6.14586L6.07477 1.33447C6.07258 1.26556 6.08461 1.1972 6.11086 1.13431C6.13711 1.07197 6.17485 1.01564 6.22297 0.969151C6.27274 0.921026 6.33125 0.882744 6.39524 0.857042C6.46305 0.829151 6.53579 0.814932 6.60961 0.814932H7.54038C7.61367 0.814932 7.6864 0.829151 7.75475 0.857042C7.81874 0.882744 7.87725 0.921026 7.92702 0.969151C7.97515 1.01563 8.01288 1.07196 8.03913 1.13431C8.06538 1.1972 8.07741 1.26556 8.07523 1.33447L8.00358 3.51539H8.65601C8.70742 3.51539 8.75828 3.5214 8.80749 3.53343C8.85616 3.54492 8.9032 3.56297 8.94749 3.58703C8.98851 3.6089 9.02624 3.63679 9.0596 3.66961C9.09132 3.70132 9.11866 3.73851 9.13945 3.77843C9.15695 3.81234 9.16952 3.84789 9.17718 3.88507C9.18046 3.90367 9.1832 3.92226 9.18429 3.94086C9.18538 3.95945 9.18538 3.97859 9.18429 3.99718C9.1821 4.02179 9.17773 4.04586 9.17171 4.06992C9.16515 4.09398 9.1564 4.11749 9.14601 4.13992C9.13616 4.16289 9.12359 4.18476 9.10991 4.20554C9.09515 4.22742 9.07874 4.2482 9.0607 4.26734L7.49172 5.98346C7.46711 6.0108 7.43922 6.03487 7.40914 6.0551C7.37797 6.07643 7.34461 6.09393 7.30961 6.10815C7.27351 6.12291 7.23578 6.1344 7.1975 6.14205C7.1182 6.15737 7.03618 6.15737 6.95687 6.14205C6.91804 6.1344 6.87976 6.12291 6.84312 6.10815C6.80812 6.09393 6.77421 6.07643 6.74249 6.0551C6.71187 6.03487 6.68343 6.0108 6.65827 5.98346L5.09195 4.27168C5.05531 4.23176 5.02523 4.18637 5.00336 4.13715L5.00727 4.13169Z" fill="white"/>
</svg>
