<svg width="34" height="34" viewBox="0 0 34 34" fill="none" xmlns="http://www.w3.org/2000/svg">
<path d="M17.0002 22.78C13.8074 22.78 11.2202 20.1928 11.2202 17C11.2202 13.8072 13.8074 11.22 17.0002 11.22C20.193 11.22 22.7802 13.8072 22.7802 17C22.7802 20.1928 20.193 22.78 17.0002 22.78ZM17.0002 21.42C19.4413 21.42 21.4202 19.4411 21.4202 17C21.4202 14.5589 19.4413 12.58 17.0002 12.58C14.5591 12.58 12.5802 14.5589 12.5802 17C12.5802 19.4411 14.5591 21.42 17.0002 21.42ZM19.7202 18.02C19.1571 18.02 18.7002 17.5631 18.7002 17C18.7002 16.4369 19.1571 15.98 19.7202 15.98C20.2833 15.98 20.7402 16.4369 20.7402 17C20.7402 17.5631 20.2833 18.02 19.7202 18.02ZM17.0002 18.02C16.4371 18.02 15.9802 17.5631 15.9802 17C15.9802 16.4369 16.4371 15.98 17.0002 15.98C17.5633 15.98 18.0202 16.4369 18.0202 17C18.0202 17.5631 17.5633 18.02 17.0002 18.02ZM14.2802 18.02C13.7171 18.02 13.2602 17.5631 13.2602 17C13.2602 16.4369 13.7171 15.98 14.2802 15.98C14.8433 15.98 15.3002 16.4369 15.3002 17C15.3002 17.5631 14.8433 18.02 14.2802 18.02Z" fill="#6B7280"/>
</svg>
