<svg width="10" height="10" viewBox="0 0 10 10" fill="none" xmlns="http://www.w3.org/2000/svg">
<path d="M1.39992 9.40001H8.59992C9.26281 9.40001 9.79992 8.8629 9.79992 8.20001V2.60001C9.79992 1.93712 9.26281 1.40001 8.59992 1.40001H4.44682L4.15776 0.821102C4.14722 0.804696 4.13511 0.789461 4.12183 0.775008C4.10659 0.75118 4.0894 0.728914 4.06987 0.70782C4.04995 0.691804 4.02847 0.677742 4.00581 0.664851C3.98511 0.651179 3.96362 0.638679 3.94097 0.628132C3.91323 0.619929 3.88472 0.61407 3.85581 0.610944C3.83745 0.605866 3.8187 0.60196 3.79995 0.600006H1.39995C0.737061 0.600006 0.199951 1.13712 0.199951 1.80001V8.20001C0.199951 8.8629 0.737061 9.40001 1.39995 9.40001L1.39992 9.40001ZM8.59992 2.20001C8.70617 2.20001 8.80773 2.2422 8.88273 2.3172C8.95773 2.3922 8.99992 2.49376 8.99992 2.60001V3.00001H5.24682L4.84682 2.20001H8.59992ZM0.999923 1.80001C0.999923 1.57892 1.17883 1.40001 1.39992 1.40001H3.55302L4.64212 3.57891C4.66048 3.61602 4.6847 3.64962 4.714 3.67891L4.73197 3.69376V3.69415C4.76205 3.71993 4.79564 3.74141 4.83197 3.75782C4.8433 3.76368 4.85501 3.76876 4.86712 3.77305C4.90931 3.78946 4.95423 3.79883 4.99993 3.80001H8.99993V8.20001C8.99993 8.30626 8.95775 8.40782 8.88274 8.48282C8.80774 8.55782 8.70618 8.60001 8.59993 8.60001H1.39993C1.17884 8.60001 0.999933 8.4211 0.999933 8.20001L0.999923 1.80001Z" fill="white"/>
</svg>
