<svg width="81" height="37" viewBox="0 0 81 37" fill="none" xmlns="http://www.w3.org/2000/svg">
<path d="M8.61512 24.7896C8.61512 27.2954 6.6864 29.3268 4.30743 29.3268C1.92847 29.3268 0 27.2954 0 24.7896C0 22.2836 1.92847 20.252 4.30743 20.252C6.6864 20.252 8.61512 22.2836 8.61512 24.7896ZM25.5291 29.3597H17.8434L7.58912 7.98701L11.4249 0L25.5291 29.3597Z" fill="white"/>
<path d="M43.9236 20.6835C43.9236 25.8801 41.419 29.7176 36.5235 29.7176C34.5501 29.7176 33.2219 29.3178 32.3491 28.5583V36.9529H27.4916V9.37074H32.3491V10.6899C33.2598 9.61059 34.626 9.01095 36.5615 9.01095C40.9636 9.01095 43.9236 12.2488 43.9236 17.9652V20.6835ZM39.0661 20.3636V18.2849C39.0661 15.087 38.1173 13.3282 35.7266 13.3282C33.4117 13.3282 32.3491 14.9271 32.3491 17.8452V20.3636C32.3491 23.2418 32.9942 25.4004 35.7266 25.4004C38.345 25.4004 39.0661 23.2418 39.0661 20.3636Z" fill="white"/>
<path d="M61.7975 26.3197C60.4693 28.7582 58.2682 29.7176 54.8528 29.7176C49.1604 29.7176 46.428 25.84 46.428 20.6835V17.9652C46.428 11.9291 49.3122 9.01095 54.2456 9.01095C59.5965 9.01095 62.0631 12.2889 62.0631 18.365V20.6434H51.2476C51.2855 23.4016 52.1204 25.4004 54.8148 25.4004C56.8261 25.4004 57.4713 24.7608 58.1923 23.6815L61.7975 26.3197ZM51.2476 17.0058H57.2056C57.0918 14.4075 56.1051 13.3282 54.2835 13.3282C52.3481 13.3282 51.4374 14.7273 51.2476 17.0058Z" fill="white"/>
<path d="M75.6111 29.3578L71.9301 23.2817L68.249 29.3578H62.8981L69.1218 19.1244L63.3915 9.37074H68.7423L71.9301 15.087L75.1178 9.37074H80.4686L74.7383 19.1244L81 29.3578H75.6111Z" fill="white"/>
<path d="M40.1809 35.1368C40.1324 35.4402 40.0443 35.7121 39.9166 35.9527C39.7915 36.1907 39.6345 36.3868 39.4455 36.5411C39.2591 36.6954 39.0484 36.8104 38.8135 36.8862C38.5786 36.9621 38.3283 37 38.0628 37C37.4423 37 36.9252 36.7856 36.5115 36.3567C36.2664 36.1057 36.1106 35.8206 36.0442 35.5016C35.9778 35.1826 35.9446 34.7773 35.9446 34.2856V33.9012C35.9446 33.4096 35.9778 33.0043 36.0442 32.6853C36.1106 32.3636 36.2664 32.0773 36.5115 31.8262C36.7209 31.6118 36.9507 31.4523 37.2009 31.3477C37.4512 31.2405 37.7385 31.1869 38.0628 31.1869C38.3411 31.1869 38.5965 31.2261 38.8288 31.3046C39.0612 31.3804 39.2693 31.4954 39.4532 31.6497C39.637 31.8014 39.7915 31.9962 39.9166 32.2342C40.0443 32.4695 40.1324 32.7415 40.1809 33.0501H38.7867C38.7382 32.8644 38.659 32.7166 38.5492 32.6068C38.442 32.4944 38.2824 32.4382 38.0704 32.4382C37.953 32.4382 37.847 32.4604 37.7525 32.5048C37.6606 32.5493 37.5865 32.6068 37.5304 32.6774C37.4818 32.7402 37.4423 32.816 37.4116 32.9049C37.3835 32.9912 37.3605 33.1246 37.3427 33.305C37.3273 33.4828 37.3197 33.7456 37.3197 34.0934C37.3197 34.5563 37.3363 34.8819 37.3695 35.0701C37.4027 35.2558 37.4563 35.4009 37.5304 35.5055C37.6529 35.6677 37.8329 35.7487 38.0704 35.7487C38.2773 35.7487 38.4356 35.6938 38.5454 35.584C38.6577 35.4715 38.7382 35.3225 38.7867 35.1368H40.1809Z" fill="white"/>
<path d="M44.6241 36.9529H40.9049V31.2339H42.2799V35.7017H44.6241V36.9529Z" fill="white"/>
<path d="M49.4962 34.2856C49.4962 34.6047 49.4847 34.8792 49.4618 35.1094C49.4413 35.3395 49.3903 35.5618 49.3085 35.7762C49.2268 35.9906 49.1017 36.1841 48.9332 36.3567C48.7263 36.5685 48.4978 36.7293 48.2475 36.8392C47.9999 36.9464 47.7075 37 47.3704 37C47.1431 37 46.9376 36.9765 46.7537 36.9294C46.5724 36.8797 46.4039 36.8078 46.2481 36.7137C46.0949 36.6195 45.9494 36.5005 45.8115 36.3567C45.5663 36.1057 45.4106 35.8206 45.3442 35.5016C45.2778 35.1826 45.2446 34.7773 45.2446 34.2856V33.9012C45.2446 33.4096 45.2778 33.0043 45.3442 32.6853C45.4106 32.3636 45.5663 32.0773 45.8115 31.8262C46.0234 31.6092 46.252 31.4484 46.4971 31.3438C46.7448 31.2392 47.0359 31.1869 47.3704 31.1869C47.7075 31.1869 47.9999 31.2405 48.2475 31.3477C48.4952 31.4523 48.7238 31.6118 48.9332 31.8262C49.1017 31.9988 49.2268 32.1936 49.3085 32.4107C49.3903 32.6251 49.4413 32.8474 49.4618 33.0775C49.4847 33.3076 49.4962 33.5822 49.4962 33.9012V34.2856ZM48.125 34.0934C48.125 33.6071 48.1084 33.2749 48.0752 33.0971C48.0445 32.9193 47.9935 32.7833 47.922 32.6892C47.8709 32.616 47.7956 32.5558 47.696 32.5088C47.5989 32.4617 47.4904 32.4382 47.3704 32.4382C47.2529 32.4382 47.147 32.4617 47.0525 32.5088C46.958 32.5532 46.8814 32.6134 46.8227 32.6892C46.7767 32.7493 46.7384 32.8239 46.7078 32.9128C46.6797 32.9991 46.658 33.1337 46.6427 33.3168C46.6273 33.4972 46.6197 33.7561 46.6197 34.0934C46.6197 34.4282 46.6273 34.687 46.6427 34.8701C46.658 35.0505 46.6797 35.1839 46.7078 35.2702C46.7384 35.3565 46.7767 35.4297 46.8227 35.4898C46.9529 35.6624 47.1355 35.7487 47.3704 35.7487C47.6079 35.7487 47.7917 35.6624 47.922 35.4898C47.9935 35.3879 48.0445 35.2519 48.0752 35.0819C48.1084 34.9093 48.125 34.5798 48.125 34.0934Z" fill="white"/>
<path d="M54.5944 34.9446C54.5944 35.2453 54.5395 35.5238 54.4297 35.7801C54.3199 36.0364 54.1666 36.256 53.97 36.4391C53.7734 36.6221 53.5461 36.762 53.2882 36.8588C53.0303 36.9529 52.7571 37 52.4685 37C52.0881 37 51.7344 36.915 51.4076 36.745C51.0833 36.5751 50.8266 36.3345 50.6377 36.0233C50.4512 35.7095 50.358 35.3499 50.358 34.9446V31.2339H51.7293V34.9132C51.7293 35.1747 51.7944 35.38 51.9246 35.5291C52.0574 35.6755 52.2387 35.7487 52.4685 35.7487C52.6166 35.7487 52.7482 35.716 52.8631 35.6507C52.978 35.5853 53.0661 35.4898 53.1274 35.3643C53.1886 35.2388 53.2193 35.0884 53.2193 34.9132V31.2339H54.5944V34.9446Z" fill="white"/>
<path d="M59.7883 34.5602C59.7883 34.8374 59.7755 35.0741 59.75 35.2702C59.727 35.4637 59.6733 35.6559 59.5891 35.8468C59.5048 36.0351 59.3771 36.2168 59.2061 36.392C58.8409 36.766 58.3391 36.9529 57.7007 36.9529H55.6285V31.2339H57.7007C58.3391 31.2339 58.8409 31.4209 59.2061 31.7949C59.3771 31.9701 59.5048 32.1531 59.5891 32.344C59.6733 32.5323 59.727 32.7245 59.75 32.9206C59.7755 33.1141 59.7883 33.3495 59.7883 33.6267V34.5602ZM58.4132 34.0934C58.4132 33.6227 58.403 33.3129 58.3825 33.1638C58.3647 33.0121 58.3264 32.8932 58.2676 32.8069C58.1272 32.5924 57.9076 32.4852 57.6088 32.4852H57.0036V35.7017H57.6088C57.9076 35.7017 58.1272 35.5944 58.2676 35.38C58.311 35.312 58.3404 35.2453 58.3557 35.18C58.3736 35.112 58.3876 34.9969 58.3979 34.8348C58.4081 34.6727 58.4132 34.4255 58.4132 34.0934Z" fill="white"/>
</svg>
