<svg width="77" height="13" viewBox="0 0 77 13" fill="none" xmlns="http://www.w3.org/2000/svg">
<g opacity="1" clip-path="url(#clip0_14_2113)">
<path d="M23.1669 8.43873C23.1384 8.38344 23.1142 8.31982 23.0942 8.24792C23.0743 8.17601 23.0572 8.09996 23.043 8.01977C22.9774 8.08891 22.9019 8.15391 22.8165 8.21473C22.731 8.27558 22.6356 8.32949 22.5302 8.37649C22.4276 8.42078 22.3137 8.45531 22.1884 8.48021C22.063 8.50787 21.9277 8.52169 21.7824 8.52169C21.546 8.52169 21.3281 8.4885 21.1286 8.42216C20.9321 8.35578 20.7626 8.26311 20.6202 8.1442C20.4777 8.02529 20.3666 7.88428 20.2869 7.72109C20.2071 7.55518 20.1672 7.37541 20.1672 7.18183C20.1672 6.70896 20.3481 6.34394 20.7099 6.08675C21.0745 5.82679 21.6172 5.69683 22.3379 5.69683H23.0002V5.43134C23.0002 5.21563 22.9276 5.04557 22.7823 4.92113C22.637 4.7939 22.4276 4.73032 22.1542 4.73032C21.912 4.73032 21.7354 4.78147 21.6243 4.8838C21.5132 4.98333 21.4577 5.11748 21.4577 5.28615H20.2698C20.2698 5.09533 20.3125 4.91419 20.398 4.74275C20.4863 4.57127 20.613 4.42059 20.7783 4.29059C20.9464 4.16063 21.15 4.05831 21.3893 3.98364C21.6315 3.90621 21.9078 3.86749 22.2183 3.86749C22.4975 3.86749 22.7567 3.90068 22.9959 3.96705C23.2381 4.03342 23.4475 4.13159 23.6241 4.26155C23.8007 4.39155 23.9389 4.55608 24.0386 4.75518C24.1383 4.95152 24.1881 5.17967 24.1881 5.43963V7.36436C24.1881 7.60494 24.2038 7.80409 24.2351 7.96171C24.2664 8.11934 24.3121 8.25482 24.3719 8.36821V8.43873H23.1669ZM22.0345 7.62985C22.1542 7.62985 22.2653 7.61603 22.3678 7.58837C22.4704 7.5607 22.5629 7.52475 22.6456 7.48051C22.7282 7.43627 22.7994 7.3865 22.8592 7.33117C22.919 7.27312 22.9661 7.21503 23.0002 7.15697V6.38542H22.3935C22.2083 6.38542 22.0502 6.40338 21.9192 6.43933C21.7881 6.47252 21.6813 6.52091 21.5987 6.58452C21.5161 6.64534 21.4548 6.72001 21.4149 6.80853C21.375 6.89425 21.3551 6.98826 21.3551 7.09059C21.3551 7.24545 21.4107 7.37403 21.5218 7.47637C21.6357 7.5787 21.8066 7.62985 22.0345 7.62985Z" fill="#fff"/>
<path d="M28.8542 3.86749C29.0337 3.86749 29.1989 3.87994 29.3499 3.90483C29.5037 3.92695 29.6276 3.95184 29.7216 3.97949L29.5465 5.12853C29.3898 5.09257 29.2288 5.06629 29.0636 5.04971C28.9012 5.03033 28.746 5.02067 28.5979 5.02067C28.2645 5.02067 27.9968 5.0829 27.7945 5.20734C27.5951 5.33177 27.4456 5.51016 27.3459 5.74245V8.43873H26.158V3.95046H27.2647L27.3202 4.68466C27.5082 4.43026 27.7333 4.23116 27.9954 4.08735C28.2574 3.94078 28.5437 3.86749 28.8542 3.86749Z" fill="#fff"/>
<path d="M33.7468 7.03251L34.1484 3.95047H35.238L34.4091 8.43874H33.3665L32.7597 5.58484L32.1743 8.43874H31.1317L30.3027 3.95047H31.3881L31.7897 7.04498L32.3709 3.95047H33.1656L33.7468 7.03251Z" fill="#fff"/>
<path d="M38.2891 8.52169C37.933 8.52169 37.6097 8.46502 37.3191 8.35163C37.0286 8.23825 36.7793 8.08477 36.5714 7.89119C36.3634 7.69485 36.2025 7.46532 36.0885 7.20259C35.9774 6.93711 35.9219 6.65367 35.9219 6.35223V6.18628C35.9219 5.8434 35.9774 5.53088 36.0885 5.24882C36.1996 4.96399 36.3549 4.71923 36.5543 4.5146C36.7537 4.30997 36.9901 4.15097 37.2636 4.03757C37.537 3.92418 37.8347 3.86749 38.1566 3.86749C38.4899 3.86749 38.7862 3.92142 39.0454 4.02927C39.3075 4.13435 39.5283 4.28369 39.7077 4.47727C39.8901 4.67084 40.0282 4.90452 40.1222 5.17829C40.2162 5.4493 40.2632 5.74936 40.2632 6.07846V6.56791H37.1268C37.1496 6.72001 37.1952 6.85968 37.2636 6.98688C37.3348 7.11135 37.4245 7.21917 37.5328 7.31045C37.641 7.4017 37.7649 7.47222 37.9045 7.52199C38.0441 7.57179 38.1965 7.59666 38.3617 7.59666C38.4785 7.59666 38.5939 7.58561 38.7078 7.56347C38.8246 7.54137 38.9358 7.50956 39.0411 7.46808C39.1465 7.42384 39.2448 7.36989 39.336 7.30631C39.4271 7.24269 39.5069 7.16802 39.5753 7.0823L40.1692 7.70452C40.0951 7.80685 39.9983 7.90776 39.8787 8.00733C39.7619 8.1041 39.6223 8.19124 39.4599 8.26868C39.3004 8.34334 39.1223 8.40416 38.9258 8.45116C38.7292 8.49821 38.517 8.52169 38.2891 8.52169ZM38.1481 4.8008C38.0142 4.8008 37.8917 4.82433 37.7806 4.87133C37.6695 4.91557 37.5712 4.98057 37.4858 5.06629C37.4032 5.15205 37.3334 5.25434 37.2764 5.37325C37.2194 5.49216 37.1767 5.62492 37.1482 5.7715H39.0967V5.68021C39.091 5.55854 39.0668 5.44378 39.0241 5.33592C38.9813 5.2281 38.9201 5.13543 38.8403 5.058C38.7605 4.97781 38.6623 4.91557 38.5455 4.87133C38.4315 4.82433 38.2991 4.8008 38.1481 4.8008Z" fill="#fff"/>
<path d="M44.1901 8.43873C44.1616 8.38344 44.1374 8.31982 44.1173 8.24792C44.0976 8.17601 44.0804 8.09996 44.0662 8.01977C44.0005 8.08891 43.9252 8.15391 43.8398 8.21473C43.754 8.27558 43.6586 8.32949 43.5536 8.37649C43.4506 8.42078 43.3368 8.45531 43.2117 8.48021C43.0861 8.50787 42.951 8.52169 42.8058 8.52169C42.5693 8.52169 42.3513 8.4885 42.1517 8.42216C41.9554 8.35578 41.7858 8.26311 41.6433 8.1442C41.5009 8.02529 41.3898 7.88428 41.3101 7.72109C41.2303 7.55518 41.1904 7.37541 41.1904 7.18183C41.1904 6.70896 41.3713 6.34394 41.7331 6.08675C42.0977 5.82679 42.6405 5.69683 43.3611 5.69683H44.0235V5.43134C44.0235 5.21563 43.9507 5.04557 43.8055 4.92113C43.6603 4.7939 43.4506 4.73032 43.1774 4.73032C42.9351 4.73032 42.7585 4.78147 42.6476 4.8838C42.5363 4.98333 42.481 5.11748 42.481 5.28615H41.293C41.293 5.09533 41.3357 4.91419 41.4211 4.74275C41.5095 4.57127 41.6362 4.42059 41.8014 4.29059C41.9696 4.16063 42.173 4.05831 42.4124 3.98364C42.6547 3.90621 42.9309 3.86749 43.2414 3.86749C43.5205 3.86749 43.78 3.90068 44.0193 3.96705C44.2612 4.03342 44.4705 4.13159 44.6471 4.26155C44.8241 4.39155 44.9622 4.55608 45.0618 4.75518C45.1614 4.95152 45.2112 5.17967 45.2112 5.43963V7.36436C45.2112 7.60494 45.2271 7.80409 45.2585 7.96171C45.2898 8.11934 45.335 8.25482 45.3949 8.36821V8.43873H44.1901ZM43.0577 7.62985C43.1774 7.62985 43.2883 7.61603 43.3912 7.58837C43.4937 7.5607 43.5862 7.52475 43.6687 7.48051C43.7515 7.43627 43.8227 7.3865 43.8825 7.33117C43.9423 7.27312 43.9892 7.21503 44.0235 7.15697V6.38542H43.4167C43.2313 6.38542 43.0736 6.40338 42.9422 6.43933C42.8112 6.47252 42.7045 6.52091 42.622 6.58452C42.5392 6.64534 42.4781 6.72001 42.4383 6.80853C42.3982 6.89425 42.3785 6.98826 42.3785 7.09059C42.3785 7.24545 42.4337 7.37403 42.545 7.47637C42.6589 7.5787 42.83 7.62985 43.0577 7.62985Z" fill="#fff"/>
<path d="M48.5231 7.10718L48.5829 7.43076L48.6428 7.11965L49.6597 3.95047H50.8988L49.1424 8.43874H48.0272L46.2625 3.95047H47.5016L48.5231 7.10718Z" fill="#fff"/>
<path d="M54.0565 8.52169C53.7004 8.52169 53.3769 8.46502 53.0865 8.35163C52.7957 8.23825 52.5467 8.08477 52.3387 7.89119C52.1307 7.69485 51.9696 7.46532 51.8558 7.20259C51.7449 6.93711 51.6892 6.65367 51.6892 6.35223V6.18628C51.6892 5.8434 51.7449 5.53088 51.8558 5.24882C51.9671 4.96399 52.1223 4.71923 52.3215 4.5146C52.5211 4.30997 52.7576 4.15097 53.0309 4.03757C53.3045 3.92418 53.6021 3.86749 53.9239 3.86749C54.2574 3.86749 54.5533 3.92142 54.8127 4.02927C55.0747 4.13435 55.2957 4.28369 55.4752 4.47727C55.6572 4.67084 55.7953 4.90452 55.8895 5.17829C55.9836 5.4493 56.0305 5.74936 56.0305 6.07846V6.56791H52.894C52.917 6.72001 52.9626 6.85968 53.0309 6.98688C53.102 7.11135 53.192 7.21917 53.2999 7.31045C53.4083 7.4017 53.5322 7.47222 53.672 7.52199C53.8113 7.57179 53.9636 7.59666 54.1289 7.59666C54.2457 7.59666 54.3612 7.58561 54.475 7.56347C54.5918 7.54137 54.7031 7.50956 54.8085 7.46808C54.914 7.42384 55.0119 7.36989 55.1032 7.30631C55.1944 7.24269 55.2743 7.16802 55.3425 7.0823L55.9363 7.70452C55.8623 7.80685 55.7656 7.90776 55.6459 8.00733C55.5292 8.1041 55.3894 8.19124 55.227 8.26868C55.0676 8.34334 54.8897 8.40416 54.693 8.45116C54.4964 8.49821 54.2842 8.52169 54.0565 8.52169ZM53.9155 4.8008C53.7816 4.8008 53.659 4.82433 53.5481 4.87133C53.4368 4.91557 53.3384 4.98057 53.2531 5.06629C53.1706 5.15205 53.1007 5.25434 53.0438 5.37325C52.9869 5.49216 52.9438 5.62492 52.9154 5.7715H54.8638V5.68021C54.8583 5.55854 54.8341 5.44378 54.7914 5.33592C54.7487 5.2281 54.6872 5.13543 54.6077 5.058C54.5277 4.97781 54.4294 4.91557 54.3126 4.87133C54.1988 4.82433 54.0662 4.8008 53.9155 4.8008Z" fill="#fff"/>
<path d="M58.2693 7.77092C58.2693 7.66306 58.2881 7.56349 58.3249 7.47225C58.3622 7.3782 58.4162 7.29801 58.4873 7.23167C58.5585 7.16252 58.6455 7.10857 58.748 7.06986C58.8506 7.02838 58.9661 7.00766 59.0941 7.00766C59.2222 7.00766 59.3377 7.02838 59.4402 7.06986C59.5427 7.10857 59.6285 7.16252 59.6967 7.23167C59.7679 7.29801 59.8218 7.3782 59.8591 7.47225C59.8988 7.56349 59.9189 7.66306 59.9189 7.77092C59.9189 7.87598 59.8988 7.97417 59.8591 8.06541C59.8218 8.1567 59.7679 8.23689 59.6967 8.30604C59.6285 8.37238 59.5427 8.42494 59.4402 8.46366C59.3377 8.50238 59.2222 8.52171 59.0941 8.52171C58.9661 8.52171 58.8506 8.50238 58.748 8.46366C58.6455 8.42494 58.5585 8.37238 58.4873 8.30604C58.4162 8.23689 58.3622 8.1567 58.3249 8.06541C58.2881 7.97417 58.2693 7.87598 58.2693 7.77092Z" fill="#fff"/>
<path d="M62.1624 6.15313C62.1624 5.82679 62.2105 5.52535 62.3076 5.24882C62.4042 4.96952 62.5453 4.72756 62.7306 4.52289C62.9185 4.31826 63.1462 4.15787 63.414 4.04171C63.6848 3.92557 63.994 3.86749 64.3414 3.86749C64.6887 3.86749 64.998 3.92557 65.2687 4.04171C65.5391 4.15787 65.7671 4.31826 65.9521 4.52289C66.1404 4.72756 66.2827 4.96952 66.3798 5.24882C66.4764 5.52535 66.525 5.82679 66.525 6.15313V6.24023C66.525 6.56929 66.4764 6.87349 66.3798 7.15283C66.2827 7.42936 66.1417 7.66994 65.9567 7.87457C65.7713 8.07924 65.5437 8.23963 65.2729 8.35578C65.0021 8.46916 64.6946 8.52583 64.3497 8.52583C64.0024 8.52583 63.6919 8.46916 63.4182 8.35578C63.1479 8.23963 62.9185 8.07924 62.7306 7.87457C62.5453 7.66994 62.4042 7.42936 62.3076 7.15283C62.2105 6.87349 62.1624 6.56929 62.1624 6.24023V6.15313ZM63.35 6.24023C63.35 6.42828 63.3684 6.60524 63.4056 6.7712C63.4425 6.93435 63.5011 7.07816 63.5806 7.20259C63.6605 7.32427 63.763 7.42108 63.8886 7.49294C64.0166 7.56485 64.1706 7.6008 64.3497 7.6008C64.5238 7.6008 64.6732 7.56485 64.7988 7.49294C64.9239 7.42108 65.0252 7.32427 65.1022 7.20259C65.1817 7.07816 65.2403 6.93435 65.2771 6.7712C65.3143 6.60524 65.3327 6.42828 65.3327 6.24023V6.15313C65.3327 5.9706 65.3143 5.79774 65.2771 5.63459C65.2403 5.47144 65.1817 5.32763 65.1022 5.20319C65.0252 5.07876 64.9239 4.98057 64.7988 4.90866C64.6732 4.83676 64.5209 4.8008 64.3414 4.8008C64.1648 4.8008 64.0137 4.83676 63.8886 4.90866C63.763 4.98057 63.6605 5.07876 63.5806 5.20319C63.5011 5.32763 63.4425 5.47144 63.4056 5.63459C63.3684 5.79774 63.35 5.9706 63.35 6.15313V6.24023Z" fill="#fff"/>
<path d="M70.9006 3.86749C71.0797 3.86749 71.245 3.87994 71.3961 3.90483C71.5501 3.92695 71.6739 3.95184 71.7677 3.97949L71.5928 5.12853C71.4358 5.09257 71.2751 5.06629 71.1098 5.04971C70.9475 5.03033 70.7922 5.02067 70.6441 5.02067C70.3105 5.02067 70.0431 5.0829 69.8406 5.20734C69.6414 5.33177 69.4916 5.51016 69.392 5.74245V8.43873H68.2043V3.95046H69.3108L69.3665 4.68466C69.5544 4.43026 69.7795 4.23116 70.0415 4.08735C70.3034 3.94078 70.5901 3.86749 70.9006 3.86749Z" fill="#fff"/>
<path d="M72.7166 6.16142C72.7166 5.82126 72.7592 5.51016 72.8446 5.2281C72.9329 4.946 73.0584 4.70403 73.2208 4.50217C73.3832 4.30026 73.5799 4.14402 73.8105 4.03342C74.041 3.9228 74.3017 3.86749 74.5926 3.86749C74.8629 3.86749 75.0952 3.91174 75.2889 4.00023C75.4827 4.08873 75.648 4.21454 75.7844 4.37769L75.8317 3.95046H76.9126V8.29354C76.9126 8.59774 76.8586 8.86875 76.7503 9.10657C76.6448 9.34443 76.4954 9.54491 76.3017 9.70806C76.1108 9.87121 75.8802 9.9943 75.6095 10.0773C75.3417 10.163 75.0454 10.2058 74.7206 10.2058C74.5809 10.2058 74.4315 10.192 74.272 10.1644C74.1126 10.1367 73.9544 10.0938 73.7975 10.0358C73.641 9.97769 73.4928 9.90302 73.3535 9.81178C73.2137 9.72325 73.094 9.61682 72.9944 9.49234L73.5284 8.79132C73.6795 8.95727 73.8502 9.08309 74.041 9.1688C74.2323 9.25729 74.4386 9.30157 74.6608 9.30157C74.9939 9.30157 75.2534 9.21443 75.4383 9.04023C75.6266 8.86875 75.7204 8.62402 75.7204 8.30601V8.04881C75.581 8.19815 75.417 8.3143 75.2291 8.39725C75.0441 8.48021 74.829 8.52169 74.5838 8.52169C74.2963 8.52169 74.0368 8.46502 73.8063 8.35163C73.5782 8.23548 73.3832 8.07648 73.2208 7.87457C73.0584 7.67271 72.9329 7.43351 72.8446 7.15697C72.7592 6.87764 72.7166 6.57486 72.7166 6.24852V6.16142ZM73.9088 6.24852C73.9088 6.43657 73.9272 6.61219 73.9645 6.77534C74.0042 6.93573 74.0641 7.07678 74.144 7.19845C74.2235 7.31736 74.3248 7.41137 74.4474 7.48051C74.5696 7.54965 74.7148 7.58423 74.883 7.58423C75.091 7.58423 75.2617 7.54551 75.3956 7.46808C75.5325 7.39065 75.6409 7.28279 75.7204 7.1445V5.24467C75.6409 5.10362 75.5325 4.9958 75.3956 4.92113C75.2617 4.8437 75.0939 4.80499 74.8914 4.80499C74.7236 4.80499 74.5784 4.84094 74.4557 4.91281C74.3331 4.98195 74.2306 5.07876 74.1482 5.20319C74.0682 5.32487 74.0084 5.46868 73.9686 5.63459C73.9289 5.79774 73.9088 5.97336 73.9088 6.16142V6.24852Z" fill="#fff"/>
<path d="M6.85299 12.4538C10.2421 12.4538 12.9894 9.78674 12.9894 6.49671C12.9894 3.20668 10.2421 0.539581 6.85299 0.539581C3.46393 0.539581 0.716553 3.20668 0.716553 6.49671C0.716553 9.78674 3.46393 12.4538 6.85299 12.4538Z" stroke="white" stroke-width="1.5"/>
<path d="M7.99867 8.64937C7.96888 8.59152 7.94356 8.52498 7.92272 8.44978C7.90184 8.37454 7.88397 8.295 7.86907 8.21111C7.80052 8.28342 7.72156 8.35143 7.63217 8.41505C7.54274 8.47871 7.44293 8.53513 7.33267 8.58429C7.22541 8.63056 7.10619 8.66676 6.97508 8.69276C6.84397 8.72168 6.70244 8.73619 6.55045 8.73619C6.30313 8.73619 6.07514 8.70145 5.86657 8.63203C5.66093 8.5626 5.48362 8.46571 5.33464 8.34131C5.18562 8.21692 5.06941 8.06937 4.98596 7.8987C4.90252 7.72511 4.86084 7.5371 4.86084 7.33458C4.86084 6.83989 5.05003 6.45806 5.42851 6.189C5.80995 5.9171 6.37761 5.78113 7.13154 5.78113H7.82438V5.50341C7.82438 5.27774 7.74838 5.09984 7.59639 4.96968C7.44444 4.83659 7.22541 4.77005 6.93934 4.77005C6.68603 4.77005 6.50127 4.82359 6.38506 4.9306C6.26885 5.03476 6.21072 5.17508 6.21072 5.35152H4.9681C4.9681 5.15193 5.01279 4.96245 5.10218 4.78309C5.19458 4.60373 5.32719 4.44607 5.50002 4.31009C5.67583 4.17412 5.88892 4.06712 6.13921 3.98899C6.39251 3.90799 6.68155 3.86749 7.00638 3.86749C7.29839 3.86749 7.56957 3.90221 7.8199 3.97164C8.0732 4.04106 8.29219 4.14378 8.47695 4.27971C8.66171 4.41568 8.80625 4.58781 8.91054 4.79609C9.01486 5.00149 9.06701 5.24016 9.06701 5.51207V7.52552C9.06701 7.77719 9.08337 7.98548 9.11618 8.15037C9.14894 8.31527 9.19661 8.45701 9.25921 8.5756V8.64937H7.99867ZM6.81417 7.80323C6.93934 7.80323 7.05555 7.78877 7.1628 7.75985C7.2701 7.73088 7.36694 7.6933 7.45335 7.64699C7.53977 7.60072 7.61426 7.54864 7.67686 7.49079C7.73943 7.43005 7.7886 7.36928 7.82438 7.30854V6.50145H7.18963C6.99596 6.50145 6.83058 6.52026 6.69348 6.55783C6.55639 6.59257 6.44465 6.64319 6.35824 6.70973C6.27182 6.77335 6.20775 6.85147 6.16603 6.94406C6.12431 7.03372 6.10347 7.13207 6.10347 7.23912C6.10347 7.40113 6.16155 7.53564 6.27777 7.64268C6.39699 7.74969 6.57576 7.80323 6.81417 7.80323Z" fill="#fff"/>
</g>
<defs>
<clipPath id="clip0_14_2113">
<rect width="77" height="13" fill="#fff"/>
</clipPath>
</defs>
</svg>
