<svg width="28" height="28" viewBox="0 0 28 28" fill="none" xmlns="http://www.w3.org/2000/svg">
<path fill-rule="evenodd" clip-rule="evenodd" d="M22.249 5.75091C17.6956 1.19643 10.3042 1.19643 5.75082 5.75091C1.19634 10.3043 1.19634 17.6957 5.75082 22.2491C10.3042 26.8036 17.6956 26.8036 22.249 22.2491C26.8035 17.6957 26.8035 10.3043 22.249 5.75091ZM20.5996 7.40028C24.2419 11.0425 24.2419 16.9575 20.5996 20.5998C16.9574 24.242 11.0424 24.242 7.40013 20.5998C3.75789 16.9575 3.75789 11.0425 7.40013 7.40028C11.0424 3.75804 16.9574 3.75804 20.5996 7.40028ZM14 12.3507L11.526 9.87442C11.0699 9.41942 10.3305 9.41942 9.87441 9.87442C9.41941 10.3305 9.41941 11.0699 9.87441 11.526L12.3507 14L9.87441 16.4741C9.41941 16.9302 9.41941 17.6695 9.87441 18.1256C10.3305 18.5806 11.0699 18.5806 11.526 18.1256L14 15.6494L16.4741 18.1256C16.9302 18.5806 17.6695 18.5806 18.1256 18.1256C18.5806 17.6695 18.5806 16.9302 18.1256 16.4741L15.6494 14L18.1256 11.526C18.5806 11.0699 18.5806 10.3305 18.1256 9.87442C17.6695 9.41942 16.9302 9.41942 16.4741 9.87442L14 12.3507Z" fill="#6B7280"/>
</svg>
