<svg width="18" height="18" viewBox="0 0 18 18" fill="none" xmlns="http://www.w3.org/2000/svg">
<path d="M4.57617 12.5402L12.3268 4.78961L12.9948 5.45757L5.24413 13.2082L4.57617 12.5402Z" fill="#017B95"/>
<path d="M4.57617 5.45757L5.24413 4.78961L12.9948 12.5402L12.3268 13.2082L4.57617 5.45757Z" fill="#017B95"/>
<path d="M8.7859 17.3025C6.58378 17.3025 4.4722 16.4278 2.91556 14.8703C1.35814 13.3136 0.483398 11.2021 0.483398 8.99999C0.483398 6.79787 1.35809 4.68629 2.91556 3.12965C5.01724 1.05551 8.0632 0.253794 10.9137 1.02383C13.7642 1.79445 15.9917 4.02191 16.7622 6.87239C17.5322 9.72287 16.7306 12.7688 14.6564 14.8705C13.1032 16.4329 10.9889 17.3083 8.78608 17.3027L8.7859 17.3025ZM8.7859 1.64465C6.83326 1.64325 4.9609 2.41739 3.57994 3.79835C2.199 5.17859 1.42354 7.05095 1.4248 9.00359C1.4255 10.9562 2.20245 12.8279 3.5848 14.2067C5.44384 16.065 8.15302 16.7906 10.6919 16.1093C13.2308 15.4279 15.2137 13.4444 15.893 10.9055C16.5729 8.36585 15.8466 5.65667 13.9868 3.79907C12.6101 2.41532 10.7376 1.63979 8.78572 1.64465H8.7859Z" fill="#017B95"/>
</svg>

