<svg width="14" height="14" viewBox="0 0 14 14" fill="none" xmlns="http://www.w3.org/2000/svg">
<g clip-path="url(#clip0_14_294)">
<path fill-rule="evenodd" clip-rule="evenodd" d="M12.0732 0H1.92644C0.845804 0 -0.000244141 0.820316 -0.000244141 1.8676V12.1324C-0.000244141 13.1797 0.845776 14 1.92644 14H12.0732C13.1538 14 13.9999 13.1797 13.9999 12.1324V1.8676C13.9999 0.82033 13.1539 0 12.0732 0V0ZM1.92644 1.55526H12.0732C12.1131 1.55526 12.4593 1.5651 12.4593 1.86753V10.9047L10.0285 8.67293L7.77757 10.1593L4.69925 7.36253L1.54155 9.33345V1.94467C1.54155 1.7303 1.71327 1.5553 1.92655 1.5553L1.92644 1.55526ZM10.8888 4.66652C10.8888 3.80738 10.1926 3.11126 9.33353 3.11126C8.47384 3.11126 7.77771 3.80744 7.77771 4.66652C7.77771 5.52621 8.47389 6.22234 9.33353 6.22234C10.1927 6.22234 10.8888 5.52616 10.8888 4.66652Z" fill="#00224C"/>
</g>
<defs>
<clipPath id="clip0_14_294">
<rect width="14" height="14" fill="white"/>
</clipPath>
</defs>
</svg>
