<svg width="8" height="8" viewBox="0 0 8 8" fill="none" xmlns="http://www.w3.org/2000/svg">
<path d="M6.19163 0.200012H1.80787C0.919707 0.200012 0.199707 0.920012 0.199707 1.80817V6.20001C0.199707 7.08817 0.919707 7.80817 1.80787 7.80817H6.19971C7.08787 7.80817 7.80787 7.08817 7.80787 6.20001V1.80817C7.79974 0.920012 7.07974 0.200012 6.19163 0.200012ZM6.09569 4.50409C6.09569 4.72816 5.91163 4.91222 5.68756 4.91222C5.4635 4.91222 5.27944 4.72816 5.27944 4.50409L5.27975 3.31193L2.52791 6.05601C2.44791 6.13601 2.34384 6.17601 2.23978 6.17601C2.13572 6.17601 2.03165 6.13601 1.95165 6.05601C1.79165 5.89601 1.79165 5.63195 1.95165 5.47195L4.69573 2.72787L3.49573 2.72818C3.27167 2.72818 3.0876 2.54412 3.0876 2.32005C3.0876 2.09599 3.27167 1.91192 3.49573 1.91192H5.67981C5.90388 1.91192 6.08794 2.09599 6.08794 2.32005V4.50413L6.09569 4.50409Z" fill="#017B95"/>
</svg>
